<mxfile host="app.diagrams.net" modified="2023-02-24T18:24:02.043Z" agent="5.0 (Windows NT 10.0; Win64; x64) AppleWebKit/537.36 (KHTML, like Gecko) Chrome/109.0.0.0 Safari/537.36" etag="p9oJi4EAsXLVqralmKn6" version="20.8.23" type="github">
  <diagram name="Page-1" id="58cdce13-f638-feb5-8d6f-7d28b1aa9fa0">
    <mxGraphModel dx="1290" dy="488" grid="1" gridSize="10" guides="1" tooltips="1" connect="1" arrows="1" fold="1" page="1" pageScale="1" pageWidth="1100" pageHeight="850" background="none" math="0" shadow="0">
      <root>
        <mxCell id="0" />
        <mxCell id="1" parent="0" />
        <mxCell id="2a3bc250acf0617d-7" value="Ciclo automático M05505N01 simplificado" style="swimlane;whiteSpace=wrap;html=1;rounded=1;shadow=0;comic=0;labelBackgroundColor=none;strokeWidth=1;fontFamily=Verdana;fontSize=12;align=center;" parent="1" vertex="1">
          <mxGeometry x="120" y="70" width="1045" height="520" as="geometry" />
        </mxCell>
        <mxCell id="o7r1w5vNjxvFz6Ge7b8Q-53" value="Volume de óleo&amp;nbsp;&lt;br&gt;atingido" style="edgeStyle=orthogonalEdgeStyle;rounded=0;orthogonalLoop=1;jettySize=auto;html=1;" edge="1" parent="2a3bc250acf0617d-7" source="382b91b5511bd0f7-8" target="3cde6dad864a17aa-1">
          <mxGeometry relative="1" as="geometry" />
        </mxCell>
        <mxCell id="382b91b5511bd0f7-8" value="Enchendo motor" style="rounded=1;whiteSpace=wrap;html=1;arcSize=24;fillColor=#ffffc0;strokeColor=#ff0000;shadow=0;comic=0;labelBackgroundColor=none;fontFamily=Verdana;fontSize=12;fontColor=#000000;align=center;" parent="2a3bc250acf0617d-7" vertex="1">
          <mxGeometry x="130" y="65" width="120" height="60" as="geometry" />
        </mxCell>
        <mxCell id="o7r1w5vNjxvFz6Ge7b8Q-94" value="Inicia&lt;br&gt;ciclo" style="edgeStyle=orthogonalEdgeStyle;rounded=0;orthogonalLoop=1;jettySize=auto;html=1;" edge="1" parent="2a3bc250acf0617d-7" source="2a3bc250acf0617d-3" target="382b91b5511bd0f7-8">
          <mxGeometry relative="1" as="geometry" />
        </mxCell>
        <mxCell id="2a3bc250acf0617d-3" value="" style="ellipse;html=1;shape=startState;fillColor=#000000;strokeColor=#ff0000;rounded=1;shadow=0;comic=0;labelBackgroundColor=none;fontFamily=Verdana;fontSize=12;fontColor=#000000;align=center;direction=south;" parent="2a3bc250acf0617d-7" vertex="1">
          <mxGeometry x="20" y="80" width="30" height="30" as="geometry" />
        </mxCell>
        <mxCell id="o7r1w5vNjxvFz6Ge7b8Q-54" value="Pressão&lt;br&gt;atingida" style="edgeStyle=orthogonalEdgeStyle;rounded=0;orthogonalLoop=1;jettySize=auto;html=1;exitX=1;exitY=0.5;exitDx=0;exitDy=0;entryX=0;entryY=0.5;entryDx=0;entryDy=0;" edge="1" parent="2a3bc250acf0617d-7" source="3cde6dad864a17aa-1" target="3cde6dad864a17aa-2">
          <mxGeometry relative="1" as="geometry" />
        </mxCell>
        <mxCell id="3cde6dad864a17aa-1" value="Pressurizando motor" style="rounded=1;whiteSpace=wrap;html=1;arcSize=24;fillColor=#ffffc0;strokeColor=#ff0000;shadow=0;comic=0;labelBackgroundColor=none;fontFamily=Verdana;fontSize=12;fontColor=#000000;align=center;" parent="2a3bc250acf0617d-7" vertex="1">
          <mxGeometry x="370" y="65" width="120" height="60" as="geometry" />
        </mxCell>
        <mxCell id="o7r1w5vNjxvFz6Ge7b8Q-60" value="Pressão&lt;br&gt;estabilizada" style="edgeStyle=orthogonalEdgeStyle;rounded=0;orthogonalLoop=1;jettySize=auto;html=1;" edge="1" parent="2a3bc250acf0617d-7" source="3cde6dad864a17aa-2" target="o7r1w5vNjxvFz6Ge7b8Q-58">
          <mxGeometry relative="1" as="geometry" />
        </mxCell>
        <mxCell id="3cde6dad864a17aa-2" value="Estabilizando pressão&lt;br&gt;(5 segundos)" style="rounded=1;whiteSpace=wrap;html=1;arcSize=24;fillColor=#ffffc0;strokeColor=#ff0000;shadow=0;comic=0;labelBackgroundColor=none;fontFamily=Verdana;fontSize=12;fontColor=#000000;align=center;" parent="2a3bc250acf0617d-7" vertex="1">
          <mxGeometry x="580" y="65" width="120" height="60" as="geometry" />
        </mxCell>
        <mxCell id="o7r1w5vNjxvFz6Ge7b8Q-31" value="List" style="swimlane;fontStyle=0;childLayout=stackLayout;horizontal=1;startSize=30;horizontalStack=0;resizeParent=1;resizeParentMax=0;resizeLast=0;collapsible=1;marginBottom=0;whiteSpace=wrap;html=1;" vertex="1" collapsed="1" parent="2a3bc250acf0617d-7">
          <mxGeometry x="210" y="125" width="60" height="30" as="geometry">
            <mxRectangle x="210" y="125" width="190" height="150" as="alternateBounds" />
          </mxGeometry>
        </mxCell>
        <mxCell id="o7r1w5vNjxvFz6Ge7b8Q-32" value="+ LigaBomba();" style="text;strokeColor=none;fillColor=none;align=left;verticalAlign=middle;spacingLeft=4;spacingRight=4;overflow=hidden;points=[[0,0.5],[1,0.5]];portConstraint=eastwest;rotatable=0;whiteSpace=wrap;html=1;" vertex="1" parent="o7r1w5vNjxvFz6Ge7b8Q-31">
          <mxGeometry y="30" width="190" height="30" as="geometry" />
        </mxCell>
        <mxCell id="o7r1w5vNjxvFz6Ge7b8Q-33" value="+ LigaVálvulaDePressão();" style="text;strokeColor=none;fillColor=none;align=left;verticalAlign=middle;spacingLeft=4;spacingRight=4;overflow=hidden;points=[[0,0.5],[1,0.5]];portConstraint=eastwest;rotatable=0;whiteSpace=wrap;html=1;" vertex="1" parent="o7r1w5vNjxvFz6Ge7b8Q-31">
          <mxGeometry y="60" width="190" height="30" as="geometry" />
        </mxCell>
        <mxCell id="o7r1w5vNjxvFz6Ge7b8Q-34" value="+ LigaVálvulaEscapeDeAr();" style="text;strokeColor=none;fillColor=none;align=left;verticalAlign=middle;spacingLeft=4;spacingRight=4;overflow=hidden;points=[[0,0.5],[1,0.5]];portConstraint=eastwest;rotatable=0;whiteSpace=wrap;html=1;" vertex="1" parent="o7r1w5vNjxvFz6Ge7b8Q-31">
          <mxGeometry y="90" width="190" height="30" as="geometry" />
        </mxCell>
        <mxCell id="o7r1w5vNjxvFz6Ge7b8Q-98" value="+ IniciaGrafico();" style="text;strokeColor=none;fillColor=none;align=left;verticalAlign=middle;spacingLeft=4;spacingRight=4;overflow=hidden;points=[[0,0.5],[1,0.5]];portConstraint=eastwest;rotatable=0;whiteSpace=wrap;html=1;" vertex="1" parent="o7r1w5vNjxvFz6Ge7b8Q-31">
          <mxGeometry y="120" width="190" height="30" as="geometry" />
        </mxCell>
        <mxCell id="o7r1w5vNjxvFz6Ge7b8Q-49" value="List" style="swimlane;fontStyle=0;childLayout=stackLayout;horizontal=1;startSize=30;horizontalStack=0;resizeParent=1;resizeParentMax=0;resizeLast=0;collapsible=1;marginBottom=0;whiteSpace=wrap;html=1;" vertex="1" collapsed="1" parent="2a3bc250acf0617d-7">
          <mxGeometry x="410" y="125" width="60" height="30" as="geometry">
            <mxRectangle x="410" y="125" width="175" height="90" as="alternateBounds" />
          </mxGeometry>
        </mxCell>
        <mxCell id="o7r1w5vNjxvFz6Ge7b8Q-50" value="+ LigaBomba();" style="text;strokeColor=none;fillColor=none;align=left;verticalAlign=middle;spacingLeft=4;spacingRight=4;overflow=hidden;points=[[0,0.5],[1,0.5]];portConstraint=eastwest;rotatable=0;whiteSpace=wrap;html=1;" vertex="1" parent="o7r1w5vNjxvFz6Ge7b8Q-49">
          <mxGeometry y="30" width="175" height="30" as="geometry" />
        </mxCell>
        <mxCell id="o7r1w5vNjxvFz6Ge7b8Q-51" value="+ LigaVálvulaDePressão();" style="text;strokeColor=none;fillColor=none;align=left;verticalAlign=middle;spacingLeft=4;spacingRight=4;overflow=hidden;points=[[0,0.5],[1,0.5]];portConstraint=eastwest;rotatable=0;whiteSpace=wrap;html=1;" vertex="1" parent="o7r1w5vNjxvFz6Ge7b8Q-49">
          <mxGeometry y="60" width="175" height="30" as="geometry" />
        </mxCell>
        <mxCell id="o7r1w5vNjxvFz6Ge7b8Q-55" value="List" style="swimlane;fontStyle=0;childLayout=stackLayout;horizontal=1;startSize=30;horizontalStack=0;resizeParent=1;resizeParentMax=0;resizeLast=0;collapsible=1;marginBottom=0;whiteSpace=wrap;html=1;" vertex="1" collapsed="1" parent="2a3bc250acf0617d-7">
          <mxGeometry x="640" y="125" width="60" height="30" as="geometry">
            <mxRectangle x="640" y="125" width="175" height="90" as="alternateBounds" />
          </mxGeometry>
        </mxCell>
        <mxCell id="o7r1w5vNjxvFz6Ge7b8Q-56" value="+ LigaBomba();" style="text;strokeColor=none;fillColor=none;align=left;verticalAlign=middle;spacingLeft=4;spacingRight=4;overflow=hidden;points=[[0,0.5],[1,0.5]];portConstraint=eastwest;rotatable=0;whiteSpace=wrap;html=1;" vertex="1" parent="o7r1w5vNjxvFz6Ge7b8Q-55">
          <mxGeometry y="30" width="175" height="30" as="geometry" />
        </mxCell>
        <mxCell id="o7r1w5vNjxvFz6Ge7b8Q-57" value="+ LigaVálvulaDePressão();" style="text;strokeColor=none;fillColor=none;align=left;verticalAlign=middle;spacingLeft=4;spacingRight=4;overflow=hidden;points=[[0,0.5],[1,0.5]];portConstraint=eastwest;rotatable=0;whiteSpace=wrap;html=1;" vertex="1" parent="o7r1w5vNjxvFz6Ge7b8Q-55">
          <mxGeometry y="60" width="175" height="30" as="geometry" />
        </mxCell>
        <mxCell id="o7r1w5vNjxvFz6Ge7b8Q-62" value="Tempo de teste atingido" style="edgeStyle=orthogonalEdgeStyle;rounded=0;orthogonalLoop=1;jettySize=auto;html=1;entryX=0.5;entryY=0;entryDx=0;entryDy=0;exitX=1;exitY=0.5;exitDx=0;exitDy=0;" edge="1" parent="2a3bc250acf0617d-7" source="o7r1w5vNjxvFz6Ge7b8Q-58" target="o7r1w5vNjxvFz6Ge7b8Q-74">
          <mxGeometry x="0.4481" relative="1" as="geometry">
            <mxPoint x="1020" y="265" as="targetPoint" />
            <mxPoint as="offset" />
          </mxGeometry>
        </mxCell>
        <mxCell id="o7r1w5vNjxvFz6Ge7b8Q-58" value="Em teste,&lt;br&gt;conta tempo" style="rounded=1;whiteSpace=wrap;html=1;arcSize=24;fillColor=#ffffc0;strokeColor=#ff0000;shadow=0;comic=0;labelBackgroundColor=none;fontFamily=Verdana;fontSize=12;fontColor=#000000;align=center;" vertex="1" parent="2a3bc250acf0617d-7">
          <mxGeometry x="820" y="65" width="120" height="60" as="geometry" />
        </mxCell>
        <mxCell id="o7r1w5vNjxvFz6Ge7b8Q-82" value="Tempo&lt;br&gt;atingido" style="edgeStyle=orthogonalEdgeStyle;rounded=0;orthogonalLoop=1;jettySize=auto;html=1;exitX=0;exitY=0.5;exitDx=0;exitDy=0;entryX=1;entryY=0.5;entryDx=0;entryDy=0;" edge="1" parent="2a3bc250acf0617d-7" source="o7r1w5vNjxvFz6Ge7b8Q-61" target="o7r1w5vNjxvFz6Ge7b8Q-83">
          <mxGeometry relative="1" as="geometry" />
        </mxCell>
        <mxCell id="o7r1w5vNjxvFz6Ge7b8Q-61" value="Esvaziando" style="rounded=1;whiteSpace=wrap;html=1;arcSize=24;fillColor=#ffffc0;strokeColor=#ff0000;shadow=0;comic=0;labelBackgroundColor=none;fontFamily=Verdana;fontSize=12;fontColor=#000000;align=center;" vertex="1" parent="2a3bc250acf0617d-7">
          <mxGeometry x="530" y="334.95" width="120" height="60" as="geometry" />
        </mxCell>
        <mxCell id="o7r1w5vNjxvFz6Ge7b8Q-66" value="List" style="swimlane;fontStyle=0;childLayout=stackLayout;horizontal=1;startSize=30;horizontalStack=0;resizeParent=1;resizeParentMax=0;resizeLast=0;collapsible=1;marginBottom=0;whiteSpace=wrap;html=1;" vertex="1" collapsed="1" parent="2a3bc250acf0617d-7">
          <mxGeometry x="530" y="394.95" width="60" height="30" as="geometry">
            <mxRectangle x="530" y="394.95" width="175" height="120" as="alternateBounds" />
          </mxGeometry>
        </mxCell>
        <mxCell id="o7r1w5vNjxvFz6Ge7b8Q-67" value="+ LigaValvulaDePressaoAr();" style="text;strokeColor=none;fillColor=none;align=left;verticalAlign=middle;spacingLeft=4;spacingRight=4;overflow=hidden;points=[[0,0.5],[1,0.5]];portConstraint=eastwest;rotatable=0;whiteSpace=wrap;html=1;" vertex="1" parent="o7r1w5vNjxvFz6Ge7b8Q-66">
          <mxGeometry y="30" width="175" height="30" as="geometry" />
        </mxCell>
        <mxCell id="o7r1w5vNjxvFz6Ge7b8Q-68" value="+ LigaVálvulaEscapeDeOleo();" style="text;strokeColor=none;fillColor=none;align=left;verticalAlign=middle;spacingLeft=4;spacingRight=4;overflow=hidden;points=[[0,0.5],[1,0.5]];portConstraint=eastwest;rotatable=0;whiteSpace=wrap;html=1;" vertex="1" parent="o7r1w5vNjxvFz6Ge7b8Q-66">
          <mxGeometry y="60" width="175" height="30" as="geometry" />
        </mxCell>
        <mxCell id="o7r1w5vNjxvFz6Ge7b8Q-99" value="+ PausaGrafico();" style="text;strokeColor=none;fillColor=none;align=left;verticalAlign=middle;spacingLeft=4;spacingRight=4;overflow=hidden;points=[[0,0.5],[1,0.5]];portConstraint=eastwest;rotatable=0;whiteSpace=wrap;html=1;" vertex="1" parent="o7r1w5vNjxvFz6Ge7b8Q-66">
          <mxGeometry y="90" width="175" height="30" as="geometry" />
        </mxCell>
        <mxCell id="24f968d109e7d6b4-3" value="" style="ellipse;html=1;shape=endState;fillColor=#000000;strokeColor=#ff0000;rounded=1;shadow=0;comic=0;labelBackgroundColor=none;fontFamily=Verdana;fontSize=12;fontColor=#000000;align=center;" parent="2a3bc250acf0617d-7" vertex="1">
          <mxGeometry x="20" y="140" width="30" height="30" as="geometry" />
        </mxCell>
        <mxCell id="o7r1w5vNjxvFz6Ge7b8Q-77" value="Sim" style="edgeStyle=orthogonalEdgeStyle;rounded=0;orthogonalLoop=1;jettySize=auto;html=1;" edge="1" parent="2a3bc250acf0617d-7" source="o7r1w5vNjxvFz6Ge7b8Q-74" target="o7r1w5vNjxvFz6Ge7b8Q-76">
          <mxGeometry relative="1" as="geometry" />
        </mxCell>
        <mxCell id="o7r1w5vNjxvFz6Ge7b8Q-79" value="Não" style="edgeStyle=orthogonalEdgeStyle;rounded=0;orthogonalLoop=1;jettySize=auto;html=1;exitX=0.5;exitY=1;exitDx=0;exitDy=0;entryX=1;entryY=0.5;entryDx=0;entryDy=0;" edge="1" parent="2a3bc250acf0617d-7" source="o7r1w5vNjxvFz6Ge7b8Q-74" target="o7r1w5vNjxvFz6Ge7b8Q-78">
          <mxGeometry relative="1" as="geometry">
            <mxPoint x="970" y="334.95" as="sourcePoint" />
          </mxGeometry>
        </mxCell>
        <mxCell id="o7r1w5vNjxvFz6Ge7b8Q-74" value="P.mínima do teste&lt;br&gt;&amp;gt;&lt;br&gt;P.aprovação?" style="rhombus;whiteSpace=wrap;html=1;" vertex="1" parent="2a3bc250acf0617d-7">
          <mxGeometry x="905" y="190" width="130" height="130" as="geometry" />
        </mxCell>
        <mxCell id="o7r1w5vNjxvFz6Ge7b8Q-81" style="edgeStyle=orthogonalEdgeStyle;rounded=0;orthogonalLoop=1;jettySize=auto;html=1;exitX=0;exitY=0.5;exitDx=0;exitDy=0;entryX=1;entryY=0.5;entryDx=0;entryDy=0;" edge="1" parent="2a3bc250acf0617d-7" source="o7r1w5vNjxvFz6Ge7b8Q-76" target="o7r1w5vNjxvFz6Ge7b8Q-61">
          <mxGeometry relative="1" as="geometry" />
        </mxCell>
        <mxCell id="o7r1w5vNjxvFz6Ge7b8Q-76" value="Teste aprovado" style="rounded=1;whiteSpace=wrap;html=1;arcSize=24;fillColor=#ffffc0;strokeColor=#ff0000;shadow=0;comic=0;labelBackgroundColor=none;fontFamily=Verdana;fontSize=12;fontColor=#000000;align=center;" vertex="1" parent="2a3bc250acf0617d-7">
          <mxGeometry x="710" y="225" width="120" height="60" as="geometry" />
        </mxCell>
        <mxCell id="o7r1w5vNjxvFz6Ge7b8Q-80" style="edgeStyle=orthogonalEdgeStyle;rounded=0;orthogonalLoop=1;jettySize=auto;html=1;exitX=0;exitY=0.5;exitDx=0;exitDy=0;entryX=1;entryY=0.75;entryDx=0;entryDy=0;" edge="1" parent="2a3bc250acf0617d-7" source="o7r1w5vNjxvFz6Ge7b8Q-78" target="o7r1w5vNjxvFz6Ge7b8Q-61">
          <mxGeometry relative="1" as="geometry" />
        </mxCell>
        <mxCell id="o7r1w5vNjxvFz6Ge7b8Q-78" value="Teste reprovado" style="rounded=1;whiteSpace=wrap;html=1;arcSize=24;fillColor=#ffffc0;strokeColor=#ff0000;shadow=0;comic=0;labelBackgroundColor=none;fontFamily=Verdana;fontSize=12;fontColor=#000000;align=center;" vertex="1" parent="2a3bc250acf0617d-7">
          <mxGeometry x="710" y="349.95" width="120" height="60" as="geometry" />
        </mxCell>
        <mxCell id="o7r1w5vNjxvFz6Ge7b8Q-88" value="" style="edgeStyle=orthogonalEdgeStyle;rounded=0;orthogonalLoop=1;jettySize=auto;html=1;" edge="1" parent="2a3bc250acf0617d-7" source="o7r1w5vNjxvFz6Ge7b8Q-83" target="o7r1w5vNjxvFz6Ge7b8Q-87">
          <mxGeometry relative="1" as="geometry" />
        </mxCell>
        <mxCell id="o7r1w5vNjxvFz6Ge7b8Q-83" value="Despressurizando" style="rounded=1;whiteSpace=wrap;html=1;arcSize=24;fillColor=#ffffc0;strokeColor=#ff0000;shadow=0;comic=0;labelBackgroundColor=none;fontFamily=Verdana;fontSize=12;fontColor=#000000;align=center;" vertex="1" parent="2a3bc250acf0617d-7">
          <mxGeometry x="295" y="334.95" width="120" height="60" as="geometry" />
        </mxCell>
        <mxCell id="o7r1w5vNjxvFz6Ge7b8Q-84" value="List" style="swimlane;fontStyle=0;childLayout=stackLayout;horizontal=1;startSize=30;horizontalStack=0;resizeParent=1;resizeParentMax=0;resizeLast=0;collapsible=1;marginBottom=0;whiteSpace=wrap;html=1;" vertex="1" collapsed="1" parent="2a3bc250acf0617d-7">
          <mxGeometry x="295" y="394.95" width="60" height="30" as="geometry">
            <mxRectangle x="295" y="394.95" width="175" height="90" as="alternateBounds" />
          </mxGeometry>
        </mxCell>
        <mxCell id="o7r1w5vNjxvFz6Ge7b8Q-85" value="+ LigaValvulaEscapeDeAr();" style="text;strokeColor=none;fillColor=none;align=left;verticalAlign=middle;spacingLeft=4;spacingRight=4;overflow=hidden;points=[[0,0.5],[1,0.5]];portConstraint=eastwest;rotatable=0;whiteSpace=wrap;html=1;" vertex="1" parent="o7r1w5vNjxvFz6Ge7b8Q-84">
          <mxGeometry y="30" width="175" height="30" as="geometry" />
        </mxCell>
        <mxCell id="o7r1w5vNjxvFz6Ge7b8Q-86" value="+ LigaVálvulaEscapeDeOleo();" style="text;strokeColor=none;fillColor=none;align=left;verticalAlign=middle;spacingLeft=4;spacingRight=4;overflow=hidden;points=[[0,0.5],[1,0.5]];portConstraint=eastwest;rotatable=0;whiteSpace=wrap;html=1;" vertex="1" parent="o7r1w5vNjxvFz6Ge7b8Q-84">
          <mxGeometry y="60" width="175" height="30" as="geometry" />
        </mxCell>
        <mxCell id="o7r1w5vNjxvFz6Ge7b8Q-89" value="Não" style="edgeStyle=orthogonalEdgeStyle;rounded=0;orthogonalLoop=1;jettySize=auto;html=1;exitX=0.5;exitY=0;exitDx=0;exitDy=0;entryX=0.5;entryY=0;entryDx=0;entryDy=0;" edge="1" parent="2a3bc250acf0617d-7" source="o7r1w5vNjxvFz6Ge7b8Q-87" target="o7r1w5vNjxvFz6Ge7b8Q-83">
          <mxGeometry relative="1" as="geometry" />
        </mxCell>
        <mxCell id="o7r1w5vNjxvFz6Ge7b8Q-92" value="Sim" style="edgeStyle=orthogonalEdgeStyle;rounded=0;orthogonalLoop=1;jettySize=auto;html=1;exitX=0;exitY=0.5;exitDx=0;exitDy=0;entryX=0.5;entryY=1;entryDx=0;entryDy=0;" edge="1" parent="2a3bc250acf0617d-7" source="o7r1w5vNjxvFz6Ge7b8Q-87" target="o7r1w5vNjxvFz6Ge7b8Q-91">
          <mxGeometry relative="1" as="geometry" />
        </mxCell>
        <mxCell id="o7r1w5vNjxvFz6Ge7b8Q-87" value="P. interna&lt;br&gt;&amp;lt;&lt;br&gt;P. segura?" style="rhombus;whiteSpace=wrap;html=1;" vertex="1" parent="2a3bc250acf0617d-7">
          <mxGeometry x="120" y="299.95" width="130" height="130" as="geometry" />
        </mxCell>
        <mxCell id="o7r1w5vNjxvFz6Ge7b8Q-93" value="Finaliza" style="edgeStyle=orthogonalEdgeStyle;rounded=0;orthogonalLoop=1;jettySize=auto;html=1;" edge="1" parent="2a3bc250acf0617d-7" source="o7r1w5vNjxvFz6Ge7b8Q-91" target="24f968d109e7d6b4-3">
          <mxGeometry relative="1" as="geometry" />
        </mxCell>
        <mxCell id="o7r1w5vNjxvFz6Ge7b8Q-91" value="Conta 10s" style="rounded=1;whiteSpace=wrap;html=1;arcSize=24;fillColor=#ffffc0;strokeColor=#ff0000;shadow=0;comic=0;labelBackgroundColor=none;fontFamily=Verdana;fontSize=12;fontColor=#000000;align=center;" vertex="1" parent="2a3bc250acf0617d-7">
          <mxGeometry x="20" y="220" width="120" height="60" as="geometry" />
        </mxCell>
        <mxCell id="o7r1w5vNjxvFz6Ge7b8Q-95" value="List" style="swimlane;fontStyle=0;childLayout=stackLayout;horizontal=1;startSize=30;horizontalStack=0;resizeParent=1;resizeParentMax=0;resizeLast=0;collapsible=1;marginBottom=0;whiteSpace=wrap;html=1;" vertex="1" collapsed="1" parent="2a3bc250acf0617d-7">
          <mxGeometry x="130" y="190" width="60" height="30" as="geometry">
            <mxRectangle x="130" y="190" width="175" height="90" as="alternateBounds" />
          </mxGeometry>
        </mxCell>
        <mxCell id="o7r1w5vNjxvFz6Ge7b8Q-96" value="+ LigaValvulaEscapeDeAr();" style="text;strokeColor=none;fillColor=none;align=left;verticalAlign=middle;spacingLeft=4;spacingRight=4;overflow=hidden;points=[[0,0.5],[1,0.5]];portConstraint=eastwest;rotatable=0;whiteSpace=wrap;html=1;" vertex="1" parent="o7r1w5vNjxvFz6Ge7b8Q-95">
          <mxGeometry y="30" width="175" height="30" as="geometry" />
        </mxCell>
        <mxCell id="o7r1w5vNjxvFz6Ge7b8Q-97" value="+ LigaVálvulaEscapeDeOleo();" style="text;strokeColor=none;fillColor=none;align=left;verticalAlign=middle;spacingLeft=4;spacingRight=4;overflow=hidden;points=[[0,0.5],[1,0.5]];portConstraint=eastwest;rotatable=0;whiteSpace=wrap;html=1;" vertex="1" parent="o7r1w5vNjxvFz6Ge7b8Q-95">
          <mxGeometry y="60" width="175" height="30" as="geometry" />
        </mxCell>
      </root>
    </mxGraphModel>
  </diagram>
</mxfile>
